<?xml version="1.0" standalone="no"?>
<svg viewBox="0 0 200 200"
  xmlns="http://www.w3.org/2000/svg">
  <mask id="mask1" mask-type="alpha">
    <path fill="#000000" d="M57.9,-59.2C72.6,-43.1,80.6,-21.5,81.2,0.6C81.8,22.7,74.9,45.4,60.1,57.8C45.4,70.3,22.7,72.6,3.6,68.9C-15.4,65.3,-30.8,55.8,-45.5,43.3C-60.2,30.8,-74.2,15.4,-75.9,-1.7C-77.6,-18.8,-66.9,-37.5,-52.2,-53.6C-37.5,-69.7,-18.8,-83.1,1.4,-84.5C21.5,-85.9,43.1,-75.3,57.9,-59.2Z" transform="translate(100 100)" />
  </mask>

  <g mask="url(#mask1)">
    <path fill="#000000" d="M57.9,-59.2C72.6,-43.1,80.6,-21.5,81.2,0.6C81.8,22.7,74.9,45.4,60.1,57.8C45.4,70.3,22.7,72.6,3.6,68.9C-15.4,65.3,-30.8,55.8,-45.5,43.3C-60.2,30.8,-74.2,15.4,-75.9,-1.7C-77.6,-18.8,-66.9,-37.5,-52.2,-53.6C-37.5,-69.7,-18.8,-83.1,1.4,-84.5C21.5,-85.9,43.1,-75.3,57.9,-59.2Z" transform="translate(100 100)" />

    <image class="home_svg-img" xlink:href=""/>

  </g>


</svg>
